<svg
  aria-hidden="true"
  style="position: absolute; width: 0; height: 0; overflow: hidden;"
  version="1.1"
  xmlns="http://www.w3.org/2000/svg"
  xmlns:xlink="http://www.w3.org/1999/xlink"
>
<defs>
<symbol id="light" viewBox="0 0 32 32">
<path
        d="M15.656 0.15c-0.081 0.081-0.169 0.244-0.188 0.356-0.019 0.119-0.031 0.938-0.019 1.825l0.019 1.619 0.175 0.15c0.1 0.081 0.256 0.15 0.356 0.15s0.256-0.069 0.356-0.15l0.175-0.15 0.019-1.619c0.012-0.887 0-1.706-0.019-1.825-0.056-0.281-0.288-0.506-0.531-0.506-0.119 0-0.25 0.056-0.344 0.15z"
      />
<path
        d="M8.181 2.181c-0.1 0.1-0.181 0.25-0.181 0.337 0 0.181 1.575 2.956 1.787 3.15 0.175 0.162 0.494 0.188 0.662 0.056 0.169-0.125 0.244-0.388 0.169-0.588-0.144-0.369-1.644-2.894-1.787-3.013-0.225-0.175-0.438-0.156-0.65 0.056z"
      />
<path
        d="M23.131 2.169c-0.288 0.275-1.775 2.919-1.769 3.15 0.012 0.438 0.525 0.65 0.85 0.35 0.212-0.194 1.788-2.969 1.788-3.15 0-0.206-0.319-0.519-0.525-0.519-0.087 0-0.244 0.075-0.344 0.169z"
      />
<path
        d="M14.875 5.375c-4.137 0.513-7.537 3.412-8.631 7.375-0.206 0.762-0.306 1.412-0.35 2.319-0.15 3.331 1.344 6.456 4.1 8.55 0.275 0.212 0.506 0.425 0.506 0.469s0.144 1.131 0.313 2.413c0.356 2.631 0.363 2.644 1.050 3.512 0.912 1.144 2.331 1.875 3.825 1.969 2.025 0.119 3.988-0.956 4.956-2.731 0.219-0.4 0.225-0.438 0.55-2.844l0.325-2.438 0.413-0.281c0.669-0.45 1.913-1.738 2.438-2.519 1.113-1.675 1.656-3.375 1.738-5.419 0.181-4.625-2.931-8.838-7.425-10.063-1.125-0.306-2.762-0.438-3.806-0.313zM17.281 6.506c2.044 0.256 4.1 1.375 5.519 2.994 1.063 1.213 1.731 2.563 2.081 4.194 0.188 0.869 0.206 2.612 0.038 3.456-0.438 2.163-1.663 4.169-3.319 5.438l-0.45 0.35h-3.025v-4.425l0.269 0.031c0.244 0.031 0.306 0 0.95-0.45 0.381-0.269 0.738-0.538 0.8-0.606 0.256-0.294 0.019-0.863-0.363-0.863-0.2 0-0.325 0.063-0.856 0.45-0.262 0.194-0.45 0.288-0.5 0.262-0.044-0.031-0.288-0.2-0.544-0.381-0.281-0.2-0.525-0.331-0.631-0.331-0.1 0-0.375 0.144-0.706 0.381l-0.544 0.375-0.544-0.375c-0.331-0.238-0.606-0.381-0.706-0.381-0.106 0-0.35 0.131-0.631 0.331-0.256 0.181-0.5 0.35-0.544 0.381-0.050 0.025-0.238-0.069-0.5-0.262-0.581-0.425-0.681-0.469-0.925-0.425-0.25 0.050-0.4 0.244-0.4 0.506 0.006 0.256 0.075 0.337 0.769 0.837 0.781 0.563 0.831 0.587 1.113 0.55l0.244-0.031v4.425h-3.013l-0.287-0.231c-1.294-1.031-2.006-1.887-2.675-3.206-0.35-0.7-0.669-1.631-0.813-2.406-0.175-0.913-0.156-2.519 0.031-3.4 0.737-3.469 3.219-6.081 6.631-7 1.081-0.287 2.244-0.35 3.531-0.188zM15.863 18.538c0.212 0.056 0.387-0.006 0.813-0.319l0.387-0.281v5h-2.125v-5l0.394 0.281c0.213 0.156 0.45 0.3 0.531 0.319zM20.413 24.231c-0.019 0.131-0.050 0.369-0.075 0.531l-0.038 0.3h-8.6l-0.037-0.3c-0.025-0.163-0.056-0.4-0.075-0.531l-0.037-0.231h8.9l-0.038 0.231zM20.125 26.294c-0.006 0.356-0.3 2.25-0.369 2.381l-0.075 0.137h-7.363l-0.075-0.137c-0.069-0.131-0.363-2.025-0.369-2.381v-0.169h8.25v0.169zM18.656 29.994c-0.231 0.231-0.875 0.575-1.375 0.738-0.431 0.144-0.606 0.163-1.281 0.163s-0.85-0.019-1.281-0.163c-0.5-0.163-1.144-0.506-1.375-0.738-0.119-0.119-0.094-0.119 2.656-0.119s2.775 0 2.656 0.119z"
      />
<path
        d="M15.369 7.513c-2.794 0.206-5.244 1.869-6.525 4.425-0.412 0.819-0.625 1.512-0.75 2.438-0.144 1.019-0.131 1.225 0.088 1.444 0.238 0.231 0.463 0.237 0.688 0.006 0.156-0.15 0.175-0.231 0.213-0.725 0.119-1.506 0.625-2.838 1.512-3.944 1.219-1.531 2.938-2.431 4.95-2.594 0.55-0.044 0.675-0.075 0.806-0.194 0.294-0.275 0.137-0.794-0.256-0.875-0.069-0.019-0.394-0.006-0.725 0.019z"
      />
<path
        d="M2.7 7.644c-0.188 0.2-0.181 0.544 0.006 0.712 0.231 0.225 2.875 1.719 3.087 1.75 0.162 0.031 0.237 0 0.394-0.156 0.237-0.244 0.244-0.469 0.019-0.694-0.1-0.094-0.8-0.525-1.556-0.963-1.506-0.862-1.694-0.925-1.95-0.65z"
      />
<path
        d="M27.313 8.319c-0.775 0.444-1.469 0.881-1.544 0.969-0.081 0.088-0.144 0.225-0.144 0.313 0 0.213 0.319 0.525 0.531 0.525 0.169 0 2.881-1.525 3.144-1.769 0.188-0.175 0.188-0.537-0.006-0.719-0.281-0.263-0.462-0.2-1.981 0.681z"
      />
<path
        d="M0.719 15.094c-0.194 0.188-0.206 0.519-0.037 0.725l0.119 0.15 3.625 0.038 0.175-0.15c0.244-0.213 0.244-0.563 0-0.769l-0.169-0.15h-3.563l-0.15 0.156z"
      />
<path
        d="M27.4 15.088c-0.244 0.206-0.244 0.556 0 0.769l0.175 0.15 3.625-0.037 0.119-0.15c0.169-0.206 0.156-0.537-0.038-0.725l-0.15-0.156h-3.563l-0.169 0.15z"
      />
<path
        d="M4.25 21.631c-0.775 0.45-1.469 0.875-1.544 0.95-0.325 0.294-0.094 0.856 0.35 0.856 0.231 0 2.944-1.519 3.181-1.788 0.181-0.206 0.175-0.406-0.025-0.644-0.269-0.325-0.4-0.281-1.962 0.625z"
      />
<path
        d="M25.887 20.85c-0.1 0.050-0.262 0.363-0.262 0.519 0 0.231 0.281 0.438 1.694 1.256 1.5 0.863 1.656 0.919 1.956 0.681 0.219-0.169 0.225-0.538 0.025-0.725-0.081-0.075-0.762-0.494-1.519-0.925-1.306-0.756-1.663-0.906-1.894-0.806z"
      />
</symbol>
<symbol id="management" viewBox="0 0 32 32">
<path
        d="M21.933 23.486l-3.439-0.594c-1.438-0.231-1.854-1.515-2.093-2.765 0.59-0.479 1.092-1.036 1.498-1.662l0.017-0.028c0.59 0.191 1.269 0.301 1.973 0.301 3.656 0 6.619-2.963 6.619-6.619s-2.963-6.619-6.619-6.619c-1.887 0-3.59 0.79-4.796 2.057l-0.003 0.003c-8.307-2.409-11.349 7.794-5.726 12.571-0.242 1.254-0.655 2.527-2.092 2.76l-3.446 0.594c-2.187 0.386-3.826 2.272-3.826 4.54 0 0.003 0 0.007 0 0.011v-0.001 3.479c0 0.268 0.217 0.485 0.485 0.485s0.485-0.217 0.485-0.485v0-3.479c0-0.002 0-0.004 0-0.006 0-1.794 1.297-3.284 3.005-3.584l0.022-0.003 3.001-0.519 2.459 3.602c0.077 0.112 0.197 0.19 0.336 0.208l0.002 0c0.018 0.002 0.039 0.004 0.059 0.004 0.123 0 0.236-0.045 0.322-0.12l-0.001 0 2.225-1.948v5.845c0 0.268 0.217 0.485 0.485 0.485s0.485-0.217 0.485-0.485v0-5.845l2.218 1.947c0.085 0.075 0.197 0.121 0.321 0.121 0.166 0 0.312-0.083 0.4-0.21l0.001-0.002 2.457-3.602 3.001 0.519c1.731 0.301 3.031 1.792 3.031 3.587 0 0.002 0 0.005 0 0.007v-0 3.479c0 0.268 0.217 0.485 0.485 0.485s0.485-0.217 0.485-0.485v0-3.479c0-0.003 0-0.006 0-0.009 0-2.271-1.644-4.159-3.807-4.538l-0.028-0.004zM19.878 6.465c8.49 0.476 6.817 12.895-1.478 11.11 1.647-3.096 0.901-8.154-2.335-9.613 0.998-0.926 2.339-1.494 3.813-1.496h0zM7.483 13.758c-0-0.021-0-0.046-0-0.070 0-0.805 0.143-1.576 0.405-2.29l-0.015 0.046c1.621 1.104 5.858 1.451 8.534 0.441 0.187-0.071 0.317-0.248 0.317-0.456 0-0.268-0.218-0.486-0.486-0.486-0.041 0-0.080 0.005-0.118 0.014l0.003-0.001c-1.027 0.389-2.214 0.614-3.454 0.614-1.59 0-3.094-0.371-4.43-1.030l0.059 0.026c2.726-4.342 10.345-2.48 9.989 3.191-0.242 8.842-10.561 8.841-10.804 0zM9.948 26.529l-1.936-2.834c0.517-0.197 0.953-0.504 1.298-0.894l0.003-0.003 2.777 1.859zM12.885 24.016l-3.045-2.038c0.146-0.357 0.277-0.784 0.371-1.224l0.009-0.051c0.765 0.443 1.683 0.704 2.663 0.704s1.897-0.261 2.689-0.718l-0.026 0.014c0.104 0.493 0.235 0.919 0.399 1.329l-0.019-0.054zM15.817 26.529l-2.138-1.872 2.773-1.859c0.348 0.393 0.785 0.699 1.28 0.889l0.022 0.008zM32 11.249v1.744c0 0 0 0 0 0 0 0.589-0.477 1.066-1.066 1.067h-1.158c-0.102 0.521-0.225 0.967-0.378 1.399l0.021-0.069 1.003 0.578c1.248 0.777-0.077 2.118-0.483 2.976-0.189 0.32-0.532 0.531-0.925 0.531-0.196 0-0.379-0.053-0.537-0.145l0.005 0.003-1.005-0.58c-0.305 0.349-0.623 0.667-0.96 0.962l-0.012 0.010 0.58 1.005c0.694 1.297-1.125 1.797-1.902 2.331-0.153 0.089-0.336 0.141-0.532 0.141-0.393 0-0.736-0.212-0.922-0.528l-0.003-0.005-0.58-1.003c-0.631 0.113-2.031 0.898-2.294 0.024-0.003-0.021-0.005-0.046-0.005-0.071 0-0.243 0.177-0.444 0.409-0.481l0.003-0c0.724-0.113 1.373-0.293 1.988-0.54l-0.061 0.021c0.052-0.021 0.112-0.033 0.175-0.033 0.179 0 0.335 0.096 0.42 0.24l0.001 0.002 0.782 1.356c0.018 0.029 0.049 0.048 0.085 0.048 0.018 0 0.034-0.005 0.049-0.013l-0 0 1.512-0.873c0.027-0.020 0.045-0.052 0.045-0.088 0-0.016-0.003-0.031-0.010-0.045l0 0.001-0.784-1.358c-0.041-0.070-0.066-0.154-0.066-0.243 0-0.152 0.071-0.288 0.181-0.377l0.001-0.001c0.527-0.425 0.992-0.89 1.403-1.4l0.014-0.017c0.090-0.111 0.226-0.181 0.378-0.181 0.089 0 0.173 0.024 0.245 0.066l-0.002-0.001 1.358 0.784c0.013 0.006 0.028 0.009 0.044 0.009 0.036 0 0.068-0.017 0.089-0.044l0-0 0.873-1.511c0.006-0.013 0.009-0.028 0.009-0.044 0-0.036-0.017-0.068-0.044-0.089l-0-0-1.356-0.782c-0.146-0.086-0.243-0.242-0.243-0.421 0-0.063 0.012-0.124 0.034-0.179l-0.001 0.003c0.225-0.554 0.405-1.203 0.512-1.876l0.007-0.051c0.036-0.235 0.237-0.412 0.479-0.412h1.559c0 0 0 0 0 0 0.053 0 0.096-0.043 0.096-0.096 0-0.001 0-0.001 0-0.002v0-1.746c0-0.053-0.043-0.096-0.096-0.096h-1.559c-0.242-0-0.443-0.178-0.479-0.41l-0-0.003c-0.114-0.725-0.294-1.373-0.54-1.989l0.022 0.061c-0.021-0.052-0.033-0.113-0.033-0.176 0-0.178 0.097-0.334 0.241-0.418l0.002-0.001 1.356-0.784c0.029-0.018 0.048-0.049 0.048-0.085 0-0.018-0.005-0.034-0.013-0.049l0 0-0.873-1.511c-0.017-0.029-0.048-0.049-0.084-0.049-0.018 0-0.035 0.005-0.050 0.014l0-0-1.358 0.784c-0.070 0.041-0.153 0.066-0.243 0.066-0.153 0-0.289-0.071-0.377-0.182l-0.001-0.001c-0.425-0.527-0.89-0.992-1.4-1.403l-0.017-0.014c-0.111-0.089-0.182-0.225-0.182-0.377 0-0.089 0.024-0.173 0.067-0.245l-0.001 0.002 0.784-1.358c0.009-0.014 0.014-0.031 0.014-0.049 0-0.036-0.020-0.066-0.049-0.082l-0-0-1.512-0.867c-0.014-0.009-0.031-0.014-0.050-0.014-0.036 0-0.067 0.020-0.083 0.049l-0 0.001-0.782 1.356c-0.086 0.145-0.242 0.241-0.421 0.241-0.063 0-0.124-0.012-0.179-0.034l0.003 0.001c-0.555-0.224-1.205-0.405-1.88-0.511l-0.051-0.007c-0.234-0.037-0.411-0.237-0.411-0.479v0-1.564c0-0.054-0.044-0.098-0.098-0.098v0h-1.74c-0.054 0-0.098 0.044-0.098 0.098v0 1.559c-0 0.242-0.178 0.443-0.41 0.479l-0.003 0c-0.724 0.113-1.372 0.293-1.987 0.539l0.061-0.022c-0.052 0.021-0.113 0.033-0.176 0.033-0.178 0-0.334-0.096-0.419-0.239l-0.001-0.002-0.782-1.356c-0.017-0.029-0.048-0.049-0.084-0.049-0.018 0-0.035 0.005-0.050 0.014l0-0-1.512 0.879c-0.030 0.016-0.049 0.046-0.049 0.082 0 0.018 0.005 0.035 0.014 0.049l-0-0 0.784 1.359c0.041 0.069 0.065 0.153 0.065 0.242 0 0.152-0.071 0.288-0.181 0.376l-0.001 0.001c-0.527 0.426-0.991 0.89-1.403 1.4l-0.014 0.018c-0.089 0.112-0.225 0.183-0.377 0.183-0.089 0-0.173-0.024-0.244-0.067l0.002 0.001-1.358-0.784c-0.014-0.009-0.031-0.014-0.050-0.014-0.036 0-0.067 0.020-0.083 0.049l-0 0-0.323 0.56c-0.086 0.146-0.242 0.243-0.421 0.243-0.089 0-0.173-0.024-0.244-0.066l0.002 0.001c-0.514-0.296-0.051-0.88 0.142-1.223 0.189-0.321 0.532-0.534 0.926-0.534 0.195 0 0.378 0.052 0.536 0.144l-0.005-0.003 1.005 0.581c0.306-0.349 0.623-0.667 0.96-0.962l0.012-0.010-0.58-1.005c-0.696-1.295 1.134-1.797 1.902-2.33 0.153-0.090 0.337-0.143 0.533-0.143 0.392 0 0.735 0.212 0.921 0.527l0.003 0.005 0.58 1.003c0.362-0.131 0.808-0.254 1.265-0.346l0.064-0.011v-1.162c0-0 0-0 0-0 0-0.589 0.478-1.067 1.067-1.067 0.004 0 0.008 0 0.012 0h1.744c0.001 0 0.002 0 0.003 0 0.59 0 1.068 0.478 1.068 1.067v1.156c0.521 0.103 0.967 0.226 1.399 0.379l-0.070-0.022 0.58-1.003c0.779-1.246 2.116 0.075 2.969 0.483 0.32 0.189 0.531 0.532 0.531 0.925 0 0.196-0.053 0.379-0.145 0.537l0.003-0.005-0.58 1.005c0.349 0.306 0.666 0.623 0.962 0.96l0.010 0.012 1.005-0.58c1.298-0.69 1.795 1.122 2.33 1.902 0.090 0.153 0.143 0.337 0.143 0.534 0 0.393-0.212 0.736-0.528 0.922l-0.005 0.003-1.003 0.578c0.132 0.363 0.255 0.809 0.347 1.267l0.010 0.063h1.158c0.587 0.003 1.061 0.48 1.061 1.067 0 0 0 0 0 0v0zM5.612 28.483v3.032c0 0.268-0.217 0.485-0.485 0.485s-0.485-0.217-0.485-0.485v0-3.032c0-0.268 0.217-0.485 0.485-0.485s0.485 0.217 0.485 0.485v0zM21.128 28.483v3.032c0 0.268-0.217 0.485-0.485 0.485s-0.485-0.217-0.485-0.485v0-3.032c0-0.268 0.217-0.485 0.485-0.485s0.485 0.217 0.485 0.485v0z"
      />
</symbol>
<symbol id="pencil" viewBox="0 0 32 32">
<path
        d="M27 0c2.761 0 5 2.239 5 5 0 1.126-0.372 2.164-1 3l-2 2-7-7 2-2c0.836-0.628 1.874-1 3-1zM2 23l-2 9 9-2 18.5-18.5-7-7-18.5 18.5zM22.362 11.362l-14 14-1.724-1.724 14-14 1.724 1.724z"
      />
</symbol>
<symbol id="cart" viewBox="0 0 32 32">
<path
        d="M12 29c0 1.657-1.343 3-3 3s-3-1.343-3-3c0-1.657 1.343-3 3-3s3 1.343 3 3z"
      />
<path
        d="M32 29c0 1.657-1.343 3-3 3s-3-1.343-3-3c0-1.657 1.343-3 3-3s3 1.343 3 3z"
      />
<path
        d="M32 16v-12h-24c0-1.105-0.895-2-2-2h-6v2h4l1.502 12.877c-0.915 0.733-1.502 1.859-1.502 3.123 0 2.209 1.791 4 4 4h24v-2h-24c-1.105 0-2-0.895-2-2 0-0.007 0-0.014 0-0.020l26-3.98z"
      />
</symbol>
<symbol id="box-add" viewBox="0 0 32 32">
<path
        d="M26 2h-20l-6 6v21c0 0.552 0.448 1 1 1h30c0.552 0 1-0.448 1-1v-21l-6-6zM16 26l-10-8h6v-6h8v6h6l-10 8zM4.828 6l2-2h18.343l2 2h-22.343z"
      />
</symbol>
<symbol id="quotes-right" viewBox="0 0 32 32">
<path
        d="M25 20c-3.866 0-7-3.134-7-7s3.134-7 7-7 7 3.134 7 7l0.031 1c0 7.732-6.268 14-14 14v-4c2.671 0 5.182-1.040 7.071-2.929 0.364-0.364 0.695-0.75 0.995-1.157-0.357 0.056-0.724 0.086-1.097 0.086zM7 20c-3.866 0-7-3.134-7-7s3.134-7 7-7 7 3.134 7 7l0.031 1c0 7.732-6.268 14-14 14v-4c2.671 0 5.182-1.040 7.071-2.929 0.364-0.364 0.695-0.75 0.995-1.157-0.357 0.056-0.724 0.086-1.097 0.086z"
      />
</symbol>
<symbol id="bin" viewBox="0 0 32 32">
<path
        d="M4 10v20c0 1.1 0.9 2 2 2h18c1.1 0 2-0.9 2-2v-20h-22zM10 28h-2v-14h2v14zM14 28h-2v-14h2v14zM18 28h-2v-14h2v14zM22 28h-2v-14h2v14z"
      />
<path
        d="M26.5 4h-6.5v-2.5c0-0.825-0.675-1.5-1.5-1.5h-7c-0.825 0-1.5 0.675-1.5 1.5v2.5h-6.5c-0.825 0-1.5 0.675-1.5 1.5v2.5h26v-2.5c0-0.825-0.675-1.5-1.5-1.5zM18 4h-6v-1.975h6v1.975z"
      />
</symbol>
</defs>
</svg>
